# xmcd
#
# Track frame offsets:
#	150
#	26189
#	42730
#	57648
#	69956
#	88178
#	101780
#	119273
#	133617
#	154250
#	168653
#	192844
#	211628
#	225287
#
# Disc length: 3240 seconds
#
# Revision: 1
# Processed by: cddbd v1.5.1PL0 Copyright (c) Steve Scherf et al.
# Submitted via: audiograbber 1.81.03
#
DISCID=c60ca60e
DTITLE=Doug Jay - Jackpot
DYEAR=2005
DGENRE=Blues
TTITLE0=In The Darkest Hour
TTITLE1=I'll Do Anything For Your Love
TTITLE2=Jackpot
TTITLE3=Giddy-Up
TTITLE4=Real Bad Girl
TTITLE5=Ya Hoodoo Me
TTITLE6=I Jump
TTITLE7=When I Get Lucky
TTITLE8=It Must Have Been The Devil
TTITLE9=Just Say So
TTITLE10=Half Ain't Been Told
TTITLE11=I Know What's Been Goin' On
TTITLE12=Tumbleweed
TTITLE13=Each and Every Day
EXTD=
EXTT0=
EXTT1=
EXTT2=
EXTT3=
EXTT4=
EXTT5=
EXTT6=
EXTT7=
EXTT8=
EXTT9=
EXTT10=
EXTT11=
EXTT12=
EXTT13=
PLAYORDER=
